<svg width="24" height="24" viewBox="0 0 24 24" fill="none" xmlns="http://www.w3.org/2000/svg">
<path d="M4.31256 20.25H7.56756C7.75027 21.2929 8.29488 22.2381 9.1056 22.9191C9.91633 23.6001 10.9412 23.9735 12.0001 23.9735C13.0589 23.9735 14.0838 23.6001 14.8945 22.9191C15.7052 22.2381 16.2499 21.2929 16.4326 20.25H19.6876C19.983 20.2623 20.278 20.2163 20.5557 20.1146C20.8334 20.0129 21.0884 19.8575 21.306 19.6573C21.5236 19.4571 21.6997 19.2159 21.8242 18.9477C21.9486 18.6794 22.019 18.3892 22.0313 18.0938C22.0436 17.7983 21.9976 17.5033 21.8959 17.2256C21.7942 16.9479 21.6388 16.6929 21.4386 16.4753C21.2384 16.2577 20.9972 16.0816 20.729 15.9571C20.4607 15.8327 20.1705 15.7623 19.8751 15.75V10.5C19.8779 9.46596 19.6756 8.44162 19.2797 7.48636C18.8838 6.53109 18.3023 5.66389 17.5688 4.935C16.8341 4.1979 15.9612 3.61298 15.0001 3.21375V3C15.0001 2.20435 14.684 1.44129 14.1214 0.87868C13.5588 0.316071 12.7957 0 12.0001 0C11.2044 0 10.4414 0.316071 9.87874 0.87868C9.31613 1.44129 9.00006 2.20435 9.00006 3V3.22125C7.55804 3.81539 6.32491 4.82434 5.45702 6.12018C4.58912 7.41601 4.12554 8.94037 4.12506 10.5V15.75C3.52833 15.7749 2.96591 16.0358 2.56153 16.4753C2.15716 16.9148 1.94395 17.497 1.96881 18.0938C1.99368 18.6905 2.25457 19.2529 2.69411 19.6573C3.13365 20.0617 3.71583 20.2749 4.31256 20.25ZM12.0001 22.5C11.3354 22.4995 10.6896 22.2783 10.1643 21.871C9.63895 21.4638 9.26374 20.8936 9.09756 20.25H14.9026C14.7364 20.8936 14.3612 21.4638 13.8358 21.871C13.3105 22.2783 12.6648 22.4995 12.0001 22.5ZM12.0001 1.5C12.3568 1.50104 12.7016 1.62922 12.9724 1.86152C13.2431 2.09382 13.4223 2.41503 13.4776 2.7675C12.9908 2.67278 12.496 2.62506 12.0001 2.625C11.5042 2.62656 11.0096 2.67426 10.5226 2.7675C10.5779 2.41503 10.757 2.09382 11.0278 1.86152C11.2986 1.62922 11.6433 1.50104 12.0001 1.5ZM3.77631 17.4713C3.84653 17.4006 3.93011 17.3447 4.02218 17.3067C4.11425 17.2687 4.21296 17.2494 4.31256 17.25H4.87506C5.07397 17.25 5.26474 17.171 5.40539 17.0303C5.54604 16.8897 5.62506 16.6989 5.62506 16.5V10.5C5.62814 9.24141 6.00369 8.01189 6.70439 6.96639C7.4051 5.92089 8.39959 5.1062 9.56255 4.62497C10.7255 4.14375 12.0049 4.01753 13.2395 4.26222C14.474 4.50692 15.6086 5.11158 16.5001 6C17.095 6.58854 17.5671 7.2894 17.889 8.0619C18.2109 8.83439 18.3761 9.66313 18.3751 10.5V16.5C18.3751 16.6989 18.4541 16.8897 18.5947 17.0303C18.7354 17.171 18.9261 17.25 19.1251 17.25H19.6876C19.8865 17.25 20.0772 17.329 20.2179 17.4697C20.3585 17.6103 20.4376 17.8011 20.4376 18C20.4376 18.1989 20.3585 18.3897 20.2179 18.5303C20.0772 18.671 19.8865 18.75 19.6876 18.75H4.31256C4.11365 18.75 3.92288 18.671 3.78223 18.5303C3.64158 18.3897 3.56256 18.1989 3.56256 18C3.56141 17.8025 3.63821 17.6125 3.77631 17.4713Z" fill="#3F41D1" fill-opacity="0.87"/>
<path d="M6.60382 3.39754L5.66632 2.22754C4.04434 3.52494 2.86508 5.29383 2.29132 7.29004L3.73132 7.71004C4.21879 6.0096 5.22256 4.50263 6.60382 3.39754Z" fill="#3F41D1" fill-opacity="0.87"/>
<path d="M20.28 7.71004L21.72 7.29004C21.1462 5.29383 19.967 3.52494 18.345 2.22754L17.4075 3.39754C18.7887 4.50263 19.7925 6.0096 20.28 7.71004Z" fill="#3F41D1" fill-opacity="0.87"/>
</svg>
