<svg width="25" height="24" viewBox="0 0 25 24" fill="none" xmlns="http://www.w3.org/2000/svg">
<g clip-path="url(#clip0_150_1740)">
<path d="M20.1699 3.75H5.16992C4.75571 3.75 4.41992 4.08579 4.41992 4.5V19.5C4.41992 19.9142 4.75571 20.25 5.16992 20.25H20.1699C20.5841 20.25 20.9199 19.9142 20.9199 19.5V4.5C20.9199 4.08579 20.5841 3.75 20.1699 3.75Z" stroke="white" stroke-width="1.5" stroke-linecap="round" stroke-linejoin="round"/>
<path d="M17.1699 2.25V5.25" stroke="white" stroke-width="1.5" stroke-linecap="round" stroke-linejoin="round"/>
<path d="M8.16992 2.25V5.25" stroke="white" stroke-width="1.5" stroke-linecap="round" stroke-linejoin="round"/>
<path d="M4.41992 8.25H20.9199" stroke="white" stroke-width="1.5" stroke-linecap="round" stroke-linejoin="round"/>
<path d="M12.6699 13.5C13.2912 13.5 13.7949 12.9963 13.7949 12.375C13.7949 11.7537 13.2912 11.25 12.6699 11.25C12.0486 11.25 11.5449 11.7537 11.5449 12.375C11.5449 12.9963 12.0486 13.5 12.6699 13.5Z" fill="white"/>
<path d="M16.7949 13.5C17.4162 13.5 17.9199 12.9963 17.9199 12.375C17.9199 11.7537 17.4162 11.25 16.7949 11.25C16.1736 11.25 15.6699 11.7537 15.6699 12.375C15.6699 12.9963 16.1736 13.5 16.7949 13.5Z" fill="white"/>
<path d="M8.54492 17.25C9.16624 17.25 9.66992 16.7463 9.66992 16.125C9.66992 15.5037 9.16624 15 8.54492 15C7.9236 15 7.41992 15.5037 7.41992 16.125C7.41992 16.7463 7.9236 17.25 8.54492 17.25Z" fill="white"/>
<path d="M12.6699 17.25C13.2912 17.25 13.7949 16.7463 13.7949 16.125C13.7949 15.5037 13.2912 15 12.6699 15C12.0486 15 11.5449 15.5037 11.5449 16.125C11.5449 16.7463 12.0486 17.25 12.6699 17.25Z" fill="white"/>
<path d="M16.7949 17.25C17.4162 17.25 17.9199 16.7463 17.9199 16.125C17.9199 15.5037 17.4162 15 16.7949 15C16.1736 15 15.6699 15.5037 15.6699 16.125C15.6699 16.7463 16.1736 17.25 16.7949 17.25Z" fill="white"/>
</g>
<defs>
<clipPath id="clip0_150_1740">
<rect width="24" height="24" fill="white" transform="translate(0.669922)"/>
</clipPath>
</defs>
</svg>
