<svg width="25" height="24" viewBox="0 0 25 24" fill="none" xmlns="http://www.w3.org/2000/svg">
<g clip-path="url(#clip0_630_1020)">
<path d="M19.8301 3.75H4.83008C4.41586 3.75 4.08008 4.08579 4.08008 4.5V19.5C4.08008 19.9142 4.41586 20.25 4.83008 20.25H19.8301C20.2443 20.25 20.5801 19.9142 20.5801 19.5V4.5C20.5801 4.08579 20.2443 3.75 19.8301 3.75Z" stroke="#666666" stroke-width="1.5" stroke-linecap="round" stroke-linejoin="round"/>
<path d="M16.8301 2.25V5.25" stroke="#666666" stroke-width="1.5" stroke-linecap="round" stroke-linejoin="round"/>
<path d="M7.83008 2.25V5.25" stroke="#666666" stroke-width="1.5" stroke-linecap="round" stroke-linejoin="round"/>
<path d="M4.08008 8.25H20.5801" stroke="#666666" stroke-width="1.5" stroke-linecap="round" stroke-linejoin="round"/>
<path d="M12.3301 13.5C12.9514 13.5 13.4551 12.9963 13.4551 12.375C13.4551 11.7537 12.9514 11.25 12.3301 11.25C11.7088 11.25 11.2051 11.7537 11.2051 12.375C11.2051 12.9963 11.7088 13.5 12.3301 13.5Z" fill="#666666"/>
<path d="M16.4551 13.5C17.0764 13.5 17.5801 12.9963 17.5801 12.375C17.5801 11.7537 17.0764 11.25 16.4551 11.25C15.8338 11.25 15.3301 11.7537 15.3301 12.375C15.3301 12.9963 15.8338 13.5 16.4551 13.5Z" fill="#666666"/>
<path d="M8.20508 17.25C8.8264 17.25 9.33008 16.7463 9.33008 16.125C9.33008 15.5037 8.8264 15 8.20508 15C7.58376 15 7.08008 15.5037 7.08008 16.125C7.08008 16.7463 7.58376 17.25 8.20508 17.25Z" fill="#666666"/>
<path d="M12.3301 17.25C12.9514 17.25 13.4551 16.7463 13.4551 16.125C13.4551 15.5037 12.9514 15 12.3301 15C11.7088 15 11.2051 15.5037 11.2051 16.125C11.2051 16.7463 11.7088 17.25 12.3301 17.25Z" fill="#666666"/>
<path d="M16.4551 17.25C17.0764 17.25 17.5801 16.7463 17.5801 16.125C17.5801 15.5037 17.0764 15 16.4551 15C15.8338 15 15.3301 15.5037 15.3301 16.125C15.3301 16.7463 15.8338 17.25 16.4551 17.25Z" fill="#666666"/>
</g>
<defs>
<clipPath id="clip0_630_1020">
<rect width="24" height="24" fill="white" transform="translate(0.330078)"/>
</clipPath>
</defs>
</svg>
