<svg width="77" height="76" viewBox="0 0 77 76" fill="none" xmlns="http://www.w3.org/2000/svg">
<path d="M53 27.9666C47.45 27.4166 41.8667 27.1333 36.3 27.1333C33 27.1333 29.7 27.3 26.4 27.6333L23 27.9666" stroke="#FA2912" stroke-width="2.5" stroke-linecap="round" stroke-linejoin="round"/>
<path d="M32.1665 26.2833L32.5332 24.1C32.7998 22.5166 32.9998 21.3333 35.8165 21.3333H40.1832C42.9998 21.3333 43.2165 22.5833 43.4665 24.1166L43.8332 26.2833" stroke="#FA2912" stroke-width="2.5" stroke-linecap="round" stroke-linejoin="round"/>
<path d="M49.4163 33.2333L48.333 50.0167C48.1497 52.6333 47.9997 54.6667 43.3497 54.6667H32.6497C27.9997 54.6667 27.8497 52.6333 27.6663 50.0167L26.583 33.2333" stroke="#FA2912" stroke-width="2.5" stroke-linecap="round" stroke-linejoin="round"/>
<path d="M35.2168 45.5H40.7668" stroke="#FA2912" stroke-width="2.5" stroke-linecap="round" stroke-linejoin="round"/>
<path d="M33.8335 38.8333H42.1668" stroke="#FA2912" stroke-width="2.5" stroke-linecap="round" stroke-linejoin="round"/>
</svg>
