<svg width="58" height="40" viewBox="0 0 58 40" fill="none" xmlns="http://www.w3.org/2000/svg">
<path d="M1.00001 20C1.00001 9.32247 9.65584 0.66664 20.3334 0.66664H38.1111C48.7886 0.66664 57.4445 9.32247 57.4445 20C57.4445 30.6775 48.7886 39.3333 38.1111 39.3333H20.3334C9.65585 39.3333 1.00001 30.6775 1.00001 20Z" fill="#F7F7F7"/>
<path d="M1.00001 20C1.00001 9.32247 9.65584 0.66664 20.3334 0.66664H38.1111C48.7886 0.66664 57.4445 9.32247 57.4445 20C57.4445 30.6775 48.7886 39.3333 38.1111 39.3333H20.3334C9.65585 39.3333 1.00001 30.6775 1.00001 20Z" stroke="#E0E0E0" stroke-width="1.11111"/>
<path fill-rule="evenodd" clip-rule="evenodd" d="M31.5132 13.5C30.4116 13.5 29.5186 14.393 29.5186 15.4946C29.5186 16.5961 30.4116 17.4891 31.5132 17.4891C32.6147 17.4891 33.5078 16.5961 33.5078 15.4946C33.5078 14.393 32.6147 13.5 31.5132 13.5ZM20.7414 16.3269H27.9469C28.3238 17.9479 29.7774 19.1558 31.5132 19.1558C33.2489 19.1558 34.7025 17.9479 35.0794 16.3269H37.6997C38.1599 16.3269 38.533 15.9538 38.533 15.4936C38.533 15.0333 38.1599 14.6602 37.6997 14.6602H35.0789C34.7013 13.0402 33.2482 11.8333 31.5132 11.8333C29.7781 11.8333 28.325 13.0402 27.9474 14.6602H20.7414C20.2811 14.6602 19.908 15.0333 19.908 15.4936C19.908 15.9538 20.2811 16.3269 20.7414 16.3269ZM23.3655 23.672H20.7424C20.2821 23.672 19.909 24.0451 19.909 24.5053C19.909 24.9655 20.2821 25.3386 20.7424 25.3386H23.3656C23.7429 26.9591 25.1962 28.1664 26.9316 28.1664C28.6669 28.1664 30.1202 26.9591 30.4975 25.3386H37.7007C38.1609 25.3386 38.534 24.9655 38.534 24.5053C38.534 24.0451 38.1609 23.672 37.7007 23.672H30.4976C30.1204 22.0513 28.667 20.8439 26.9316 20.8439C25.1961 20.8439 23.7427 22.0513 23.3655 23.672ZM28.9261 24.5051C28.9261 23.4035 28.0331 22.5105 26.9316 22.5105C25.83 22.5105 24.937 23.4035 24.937 24.5051C24.937 25.6067 25.83 26.4997 26.9316 26.4997C28.0331 26.4997 28.9261 25.6067 28.9261 24.5051Z" fill="#666666"/>
</svg>
