<svg width="58" height="40" viewBox="0 0 58 40" fill="none" xmlns="http://www.w3.org/2000/svg">
<path d="M20.3331 0.666748H38.1115C48.7887 0.666929 57.4443 9.32246 57.4445 19.9998C57.4445 30.6772 48.7888 39.3336 38.1115 39.3337H20.3331C9.65573 39.3336 1.00012 30.6772 1.00012 19.9998C1.00024 9.32242 9.6558 0.666869 20.3331 0.666748Z" fill="#F7F7F7"/>
<path d="M20.3331 0.666748H38.1115C48.7887 0.666929 57.4443 9.32246 57.4445 19.9998C57.4445 30.6772 48.7888 39.3336 38.1115 39.3337H20.3331C9.65573 39.3336 1.00012 30.6772 1.00012 19.9998C1.00024 9.32242 9.6558 0.666869 20.3331 0.666748Z" stroke="#E0E0E0" stroke-width="1.11111"/>
<path d="M33.2923 17.1583C36.5923 17.4424 37.9398 19.1383 37.9398 22.8508V22.9699C37.9398 27.0674 36.2989 28.7083 32.2014 28.7083H26.2339C22.1364 28.7083 20.4956 27.0674 20.4956 22.9699V22.8508C20.4956 19.1658 21.8248 17.4699 25.0698 17.1674" stroke="#666666" stroke-width="1.375" stroke-linecap="round" stroke-linejoin="round"/>
<path d="M29.2223 22.7501V12.3184" stroke="#666666" stroke-width="1.375" stroke-linecap="round" stroke-linejoin="round"/>
<path d="M32.2932 14.3625L29.2223 11.2917L26.1515 14.3625" stroke="#666666" stroke-width="1.375" stroke-linecap="round" stroke-linejoin="round"/>
</svg>
