<svg width="34" height="34" viewBox="0 0 34 34" fill="none" xmlns="http://www.w3.org/2000/svg">
<path d="M6.41699 13.7083L9.66699 15.0833C10.0559 14.3055 10.4587 13.5555 10.8753 12.8333C11.292 12.1111 11.7503 11.3889 12.2503 10.6667L9.91699 10.2083L6.41699 13.7083ZM12.3337 17.1667L17.0837 21.875C18.2503 21.4305 19.5003 20.75 20.8337 19.8333C22.167 18.9167 23.417 17.875 24.5837 16.7083C26.5281 14.7639 28.0489 12.6042 29.1462 10.2292C30.2434 7.85416 30.7225 5.66666 30.5837 3.66666C28.5837 3.52777 26.3892 4.00694 24.0003 5.10416C21.6114 6.20138 19.4448 7.72221 17.5003 9.66666C16.3337 10.8333 15.292 12.0833 14.3753 13.4167C13.4587 14.75 12.7781 16 12.3337 17.1667ZM19.7503 14.4583C19.1114 13.8194 18.792 13.0347 18.792 12.1042C18.792 11.1736 19.1114 10.3889 19.7503 9.74999C20.3892 9.1111 21.1809 8.79166 22.1253 8.79166C23.0698 8.79166 23.8614 9.1111 24.5003 9.74999C25.1392 10.3889 25.4587 11.1736 25.4587 12.1042C25.4587 13.0347 25.1392 13.8194 24.5003 14.4583C23.8614 15.0972 23.0698 15.4167 22.1253 15.4167C21.1809 15.4167 20.3892 15.0972 19.7503 14.4583ZM20.542 27.8333L24.042 24.3333L23.5837 22C22.8614 22.5 22.1392 22.9514 21.417 23.3542C20.6948 23.7569 19.9448 24.1528 19.167 24.5417L20.542 27.8333ZM33.5837 0.624993C34.1114 3.9861 33.785 7.25694 32.6045 10.4375C31.4239 13.618 29.3892 16.6528 26.5003 19.5417L27.3337 23.6667C27.4448 24.2222 27.417 24.7639 27.2503 25.2917C27.0837 25.8194 26.8059 26.2778 26.417 26.6667L19.417 33.6667L15.917 25.4583L8.79199 18.3333L0.583659 14.8333L7.54199 7.83333C7.93088 7.44444 8.39616 7.16666 8.93783 6.99999C9.47949 6.83333 10.0281 6.80555 10.5837 6.91666L14.7087 7.74999C17.5975 4.8611 20.6253 2.81944 23.792 1.62499C26.9587 0.430548 30.2225 0.097215 33.5837 0.624993ZM3.54199 23.625C4.51421 22.6528 5.70171 22.1597 7.10449 22.1458C8.50727 22.1319 9.69477 22.6111 10.667 23.5833C11.6392 24.5555 12.1184 25.743 12.1045 27.1458C12.0906 28.5486 11.5975 29.7361 10.6253 30.7083C9.93088 31.4028 8.77116 32 7.14616 32.5C5.52116 33 3.2781 33.4444 0.416992 33.8333C0.805881 30.9722 1.25033 28.7292 1.75033 27.1042C2.25033 25.4792 2.84755 24.3194 3.54199 23.625ZM5.91699 25.9583C5.63921 26.2361 5.36144 26.743 5.08366 27.4792C4.80588 28.2153 4.61144 28.9583 4.50033 29.7083C5.25033 29.5972 5.99338 29.4097 6.72949 29.1458C7.4656 28.8819 7.97255 28.6111 8.25033 28.3333C8.58366 28 8.76421 27.5972 8.79199 27.125C8.81977 26.6528 8.66699 26.25 8.33366 25.9167C8.00033 25.5833 7.59755 25.4236 7.12533 25.4375C6.6531 25.4514 6.25033 25.625 5.91699 25.9583Z" fill="#3F41D1"/>
</svg>
