<svg width="36" height="32" viewBox="0 0 36 32" fill="none" xmlns="http://www.w3.org/2000/svg">
<path d="M3.32705 31.9998C2.52089 31.9998 1.8483 31.7303 1.3093 31.1913C0.770304 30.6523 0.500221 29.9791 0.499054 29.1718V10.3278C0.499054 9.52159 0.769137 8.84901 1.3093 8.31001C1.84947 7.77101 2.52205 7.50092 3.32705 7.49976H8.5018L11.7393 3.99976H20.8271V5.74976H12.4971L9.27005 9.24976H3.32705C3.01205 9.24976 2.75364 9.35067 2.5518 9.55251C2.34997 9.75434 2.24905 10.0128 2.24905 10.3278V29.1735C2.24905 29.4873 2.34997 29.7452 2.5518 29.947C2.75364 30.1488 3.01205 30.2498 3.32705 30.2498H29.1728C29.4866 30.2498 29.7445 30.1488 29.9463 29.947C30.1481 29.7452 30.2491 29.4868 30.2491 29.1718V15.1718H31.9991V29.1718C31.9991 29.9779 31.729 30.6505 31.1888 31.1895C30.6486 31.7285 29.9766 31.9986 29.1728 31.9998H3.32705ZM30.2491 9.24976V5.74976H26.7491V3.99976H30.2491V0.499756H31.9991V3.99976H35.4991V5.74976H31.9991V9.24976H30.2491ZM16.2491 26.2773C18.0772 26.2773 19.6225 25.6467 20.8848 24.3855C22.1471 23.1243 22.7783 21.5791 22.7783 19.7498C22.7783 17.9204 22.1471 16.3752 20.8848 15.114C19.6225 13.8528 18.0772 13.2217 16.2491 13.2205C14.4209 13.2193 12.8756 13.8505 11.6133 15.114C10.351 16.3775 9.7198 17.9228 9.7198 19.7498C9.7198 21.5768 10.351 23.122 11.6133 24.3855C12.8756 25.649 14.4209 26.2802 16.2491 26.279M16.2491 24.529C14.8899 24.529 13.7536 24.0723 12.8401 23.1588C11.9266 22.2453 11.4698 21.1089 11.4698 19.7498C11.4698 18.3906 11.9266 17.2543 12.8401 16.3408C13.7536 15.4273 14.8899 14.9705 16.2491 14.9705C17.6082 14.9705 18.7446 15.4273 19.6581 16.3408C20.5716 17.2543 21.0283 18.3906 21.0283 19.7498C21.0283 21.1089 20.5716 22.2453 19.6581 23.1588C18.7446 24.0723 17.6082 24.529 16.2491 24.529Z" fill="#3F41D1"/>
</svg>
